<?xml version="1.0" encoding="UTF-8"?><svg xmlns="http://www.w3.org/2000/svg" xmlns:xlink="http://www.w3.org/1999/xlink" width="375pt" zoomAndPan="magnify" viewBox="0 0 375 374.999991" height="374.999991pt" preserveAspectRatio="xMidYMid meet" version="1.2"><defs><g/><clipPath xml:id="clip1" id="clip1"><path d="M 3.953125 131.710938 L 49.605469 131.710938 L 49.605469 224.183594 L 3.953125 224.183594 Z M 3.953125 131.710938 "/></clipPath><clipPath xml:id="clip2" id="clip2"><path d="M 49.597656 201.195312 L 49.597656 224.167969 C 24.390625 224.167969 3.953125 203.46875 3.953125 177.941406 C 3.953125 152.414062 24.390625 131.71875 49.597656 131.71875 L 49.597656 154.691406 C 36.921875 154.691406 26.636719 165.101562 26.636719 177.945312 C 26.636719 190.789062 36.921875 201.195312 49.597656 201.195312 Z M 49.597656 201.195312 "/></clipPath><clipPath xml:id="clip3" id="clip3"><path d="M 26.949219 153.046875 L 111.226562 153.046875 L 111.226562 237.324219 L 26.949219 237.324219 Z M 26.949219 153.046875 "/></clipPath><clipPath xml:id="clip4" id="clip4"><path d="M 111.234375 153.046875 L 111.234375 237.332031 L 26.949219 237.332031 C 26.949219 190.785156 64.6875 153.046875 111.234375 153.046875 Z M 111.234375 153.046875 "/></clipPath><clipPath xml:id="clip5" id="clip5"><path d="M 48.851562 131.710938 L 95.527344 131.710938 L 95.527344 225.058594 L 48.851562 225.058594 Z M 48.851562 131.710938 "/></clipPath><clipPath xml:id="clip6" id="clip6"><path d="M 48.710938 154.691406 L 48.710938 131.421875 C 74.566406 131.421875 95.527344 152.386719 95.527344 178.242188 C 95.527344 204.101562 74.566406 225.058594 48.710938 225.058594 L 48.710938 201.792969 C 61.714844 201.792969 72.265625 191.25 72.265625 178.238281 C 72.265625 165.230469 61.714844 154.691406 48.710938 154.691406 Z M 48.710938 154.691406 "/></clipPath></defs><g xml:id="surface1" id="surface1"><g style="fill:rgb(6.669617%,12.548828%,19.219971%);fill-opacity:1;"><g transform="translate(110.969769, 210.11525)"><path style="stroke:none;" d="M 47.75 -5.722656 C 52.089844 -10.0625 54.550781 -16.183594 54.550781 -23.628906 C 54.550781 -38.828125 44.273438 -48.519531 28.859375 -48.519531 C 13.476562 -48.519531 3.261719 -38.828125 3.261719 -23.628906 C 3.261719 -8.429688 13.476562 1.261719 28.859375 1.261719 C 32.738281 1.261719 36.273438 0.644531 39.414062 -0.492188 L 42.582031 3.261719 C 43.105469 3.90625 43.722656 3.96875 44.367188 3.414062 L 49.96875 -1.199219 C 50.613281 -1.753906 50.613281 -2.339844 50.089844 -2.953125 Z M 28.859375 -10.09375 C 21.046875 -10.09375 15.875 -15.261719 15.875 -23.628906 C 15.875 -32 21.046875 -37.167969 28.859375 -37.167969 C 36.738281 -37.167969 41.96875 -32 41.96875 -23.628906 C 41.96875 -20.308594 41.136719 -17.507812 39.660156 -15.324219 L 32.890625 -23.382812 C 32.398438 -24 31.753906 -24.058594 31.136719 -23.507812 L 25.507812 -18.828125 C 24.890625 -18.277344 24.890625 -17.691406 25.382812 -17.074219 L 31.167969 -10.246094 C 30.429688 -10.152344 29.660156 -10.09375 28.859375 -10.09375 Z M 28.859375 -10.09375 "/></g><g transform="translate(168.567158, 210.11525)"><path style="stroke:none;" d="M 22.183594 0.769531 C 33.660156 0.769531 41.78125 -6.921875 41.78125 -17.785156 C 41.78125 -28.613281 33.660156 -36.304688 22.183594 -36.304688 C 10.832031 -36.304688 2.707031 -28.613281 2.707031 -17.785156 C 2.707031 -6.921875 10.832031 0.769531 22.183594 0.769531 Z M 22.183594 -9.015625 C 17.199219 -9.015625 14.121094 -12.921875 14.121094 -17.785156 C 14.121094 -22.613281 17.199219 -26.523438 22.183594 -26.523438 C 27.351562 -26.523438 30.367188 -22.613281 30.367188 -17.785156 C 30.367188 -12.921875 27.351562 -9.015625 22.183594 -9.015625 Z M 22.183594 -9.015625 "/></g><g transform="translate(213.057449, 210.11525)"><path style="stroke:none;" d="M 10.03125 -37.445312 C 13.628906 -37.445312 16.335938 -40.152344 16.335938 -43.722656 C 16.335938 -47.257812 13.628906 -50.027344 10.03125 -50.027344 C 6.554688 -50.027344 3.785156 -47.257812 3.785156 -43.722656 C 3.785156 -40.152344 6.554688 -37.445312 10.03125 -37.445312 Z M 14.554688 0 C 15.382812 0 15.816406 -0.429688 15.816406 -1.261719 L 15.816406 -34.273438 C 15.816406 -35.105469 15.382812 -35.535156 14.554688 -35.535156 L 5.601562 -35.535156 C 4.800781 -35.535156 4.339844 -35.105469 4.339844 -34.273438 L 4.339844 -1.261719 C 4.339844 -0.429688 4.800781 0 5.601562 0 Z M 14.554688 0 "/></g><g transform="translate(233.271917, 210.11525)"><path style="stroke:none;" d="M 27.230469 -36.304688 C 22.984375 -36.304688 18.308594 -34.769531 14.152344 -31.042969 L 12.921875 -34.460938 C 12.675781 -35.167969 12.214844 -35.535156 11.539062 -35.535156 L 5.601562 -35.535156 C 4.800781 -35.535156 4.339844 -35.105469 4.339844 -34.273438 L 4.339844 -1.261719 C 4.339844 -0.429688 4.800781 0 5.601562 0 L 14.554688 0 C 15.382812 0 15.816406 -0.429688 15.816406 -1.261719 L 15.816406 -19.292969 C 15.816406 -23.445312 18.582031 -26.707031 22.800781 -26.707031 C 27.046875 -26.707031 29.167969 -23.320312 29.167969 -19.230469 L 29.167969 -1.261719 C 29.167969 -0.429688 29.628906 0 30.429688 0 L 39.382812 0 C 40.214844 0 40.644531 -0.429688 40.644531 -1.261719 L 40.644531 -21.476562 C 40.644531 -27.414062 38.613281 -36.304688 27.230469 -36.304688 Z M 27.230469 -36.304688 "/></g><g transform="translate(277.885279, 210.11525)"><path style="stroke:none;" d="M 28.367188 1.261719 C 37.445312 1.261719 44.738281 -2.152344 49.199219 -7.816406 C 49.660156 -8.367188 49.476562 -8.890625 48.765625 -9.382812 L 40.460938 -14.921875 C 39.8125 -15.382812 39.257812 -15.261719 38.765625 -14.613281 C 36.429688 -11.785156 32.828125 -10.09375 28.367188 -10.09375 C 20.554688 -10.09375 15.382812 -15.261719 15.382812 -23.628906 C 15.382812 -32 20.554688 -37.167969 28.367188 -37.167969 C 32.828125 -37.167969 36.429688 -35.476562 38.765625 -32.644531 C 39.257812 -32 39.8125 -31.875 40.460938 -32.335938 L 48.765625 -37.875 C 49.476562 -38.367188 49.597656 -38.953125 49.074219 -39.566406 C 44.550781 -45.167969 37.289062 -48.519531 28.367188 -48.519531 C 12.984375 -48.519531 2.769531 -38.828125 2.769531 -23.628906 C 2.769531 -8.429688 12.984375 1.261719 28.367188 1.261719 Z M 28.367188 1.261719 "/></g><g transform="translate(329.359869, 210.11525)"><path style="stroke:none;" d="M 22.183594 0.769531 C 33.660156 0.769531 41.78125 -6.921875 41.78125 -17.785156 C 41.78125 -28.613281 33.660156 -36.304688 22.183594 -36.304688 C 10.832031 -36.304688 2.707031 -28.613281 2.707031 -17.785156 C 2.707031 -6.921875 10.832031 0.769531 22.183594 0.769531 Z M 22.183594 -9.015625 C 17.199219 -9.015625 14.121094 -12.921875 14.121094 -17.785156 C 14.121094 -22.613281 17.199219 -26.523438 22.183594 -26.523438 C 27.351562 -26.523438 30.367188 -22.613281 30.367188 -17.785156 C 30.367188 -12.921875 27.351562 -9.015625 22.183594 -9.015625 Z M 22.183594 -9.015625 "/></g></g><g clip-rule="nonzero" clip-path="url(#clip1)"><g clip-rule="nonzero" clip-path="url(#clip2)"><path style=" stroke:none;fill-rule:nonzero;fill:rgb(6.698608%,12.5%,19.198608%);fill-opacity:1;" d="M 3.953125 131.71875 L 3.953125 224.167969 L 49.597656 224.167969 L 49.597656 131.71875 Z M 3.953125 131.71875 "/></g></g><g clip-rule="nonzero" clip-path="url(#clip3)"><g clip-rule="nonzero" clip-path="url(#clip4)"><path style=" stroke:none;fill-rule:nonzero;fill:rgb(20.399475%,35.699463%,38.798523%);fill-opacity:1;" d="M 26.949219 153.046875 L 26.949219 237.324219 L 111.226562 237.324219 L 111.226562 153.046875 Z M 26.949219 153.046875 "/></g></g><g clip-rule="nonzero" clip-path="url(#clip5)"><g clip-rule="nonzero" clip-path="url(#clip6)"><path style=" stroke:none;fill-rule:nonzero;fill:rgb(100%,100%,100%);fill-opacity:1;" d="M 95.527344 225.058594 L 95.527344 131.710938 L 48.851562 131.710938 L 48.851562 225.058594 Z M 95.527344 225.058594 "/></g></g><g style="fill:rgb(0%,0%,0%);fill-opacity:1;"><g transform="translate(115.621067, 232.736163)"><path style="stroke:none;" d="M 6.039062 -11.816406 C 5.859375 -12.214844 5.53125 -12.214844 5.347656 -11.816406 L 0.253906 -0.371094 C 0.152344 -0.144531 0.253906 0 0.484375 0 L 2.183594 0 C 2.355469 0 2.484375 -0.078125 2.546875 -0.246094 L 3.214844 -1.90625 L 8.175781 -1.90625 L 8.847656 -0.246094 C 8.90625 -0.078125 9.039062 0 9.207031 0 L 10.898438 0 C 11.136719 0 11.230469 -0.144531 11.136719 -0.371094 Z M 5.699219 -8.054688 L 7.476562 -3.636719 L 3.914062 -3.636719 Z M 5.699219 -8.054688 "/></g><g transform="translate(127.020551, 232.736163)"><path style="stroke:none;" d=""/></g><g transform="translate(131.743413, 232.736163)"><path style="stroke:none;" d="M 2.445312 0.277344 C 4.398438 0.277344 4.90625 -1.007812 4.90625 -3.09375 L 4.90625 -11.5 C 4.90625 -11.707031 4.800781 -11.816406 4.59375 -11.816406 L 3.070312 -11.816406 C 2.867188 -11.816406 2.753906 -11.707031 2.753906 -11.5 L 2.753906 -3.023438 C 2.753906 -2.136719 2.578125 -1.691406 1.839844 -1.691406 C 1.644531 -1.691406 1.371094 -1.714844 0.9375 -1.847656 C 0.714844 -1.90625 0.585938 -1.832031 0.546875 -1.621094 L 0.292969 -0.375 C 0.253906 -0.183594 0.332031 -0.0546875 0.53125 0.0078125 C 1.339844 0.246094 1.945312 0.277344 2.445312 0.277344 Z M 2.445312 0.277344 "/></g><g transform="translate(137.789293, 232.736163)"><path style="stroke:none;" d="M 4.144531 -8.316406 C 3.246094 -8.316406 2.277344 -8.144531 1.363281 -7.847656 C 1.167969 -7.777344 1.09375 -7.644531 1.160156 -7.445312 L 1.484375 -6.429688 C 1.546875 -6.230469 1.683594 -6.175781 1.882812 -6.246094 C 2.59375 -6.507812 3.332031 -6.675781 3.96875 -6.675781 C 4.921875 -6.675781 5.644531 -6.300781 5.644531 -5.246094 L 5.644531 -4.730469 C 5.0625 -4.875 4.484375 -4.953125 3.9375 -4.953125 C 2.109375 -4.953125 0.683594 -4.078125 0.683594 -2.324219 C 0.683594 -0.628906 1.976562 0.175781 3.421875 0.175781 C 4.300781 0.175781 5.277344 -0.117188 5.929688 -1 L 6.121094 -0.277344 C 6.160156 -0.0859375 6.285156 0 6.46875 0 L 7.316406 0 C 7.523438 0 7.628906 -0.109375 7.628906 -0.316406 L 7.628906 -5.332031 C 7.628906 -7.507812 6.0625 -8.316406 4.144531 -8.316406 Z M 3.898438 -1.269531 C 3.238281 -1.269531 2.667969 -1.609375 2.667969 -2.355469 C 2.667969 -3.214844 3.414062 -3.554688 4.398438 -3.554688 C 4.800781 -3.554688 5.214844 -3.5 5.644531 -3.398438 L 5.644531 -3.054688 C 5.644531 -1.714844 4.628906 -1.269531 3.898438 -1.269531 Z M 3.898438 -1.269531 "/></g><g transform="translate(146.404287, 232.736163)"><path style="stroke:none;" d="M 3.992188 0.0078125 C 4.222656 0.484375 4.621094 0.476562 4.847656 0 L 8.4375 -7.777344 C 8.539062 -7.992188 8.4375 -8.144531 8.199219 -8.144531 L 6.785156 -8.144531 C 6.605469 -8.144531 6.492188 -8.085938 6.421875 -7.90625 L 4.421875 -2.921875 L 2.375 -7.90625 C 2.308594 -8.078125 2.183594 -8.144531 2.007812 -8.144531 L 0.609375 -8.144531 C 0.371094 -8.144531 0.277344 -7.992188 0.375 -7.777344 Z M 3.992188 0.0078125 "/></g><g transform="translate(155.226964, 232.736163)"><path style="stroke:none;" d="M 4.144531 -8.316406 C 3.246094 -8.316406 2.277344 -8.144531 1.363281 -7.847656 C 1.167969 -7.777344 1.09375 -7.644531 1.160156 -7.445312 L 1.484375 -6.429688 C 1.546875 -6.230469 1.683594 -6.175781 1.882812 -6.246094 C 2.59375 -6.507812 3.332031 -6.675781 3.96875 -6.675781 C 4.921875 -6.675781 5.644531 -6.300781 5.644531 -5.246094 L 5.644531 -4.730469 C 5.0625 -4.875 4.484375 -4.953125 3.9375 -4.953125 C 2.109375 -4.953125 0.683594 -4.078125 0.683594 -2.324219 C 0.683594 -0.628906 1.976562 0.175781 3.421875 0.175781 C 4.300781 0.175781 5.277344 -0.117188 5.929688 -1 L 6.121094 -0.277344 C 6.160156 -0.0859375 6.285156 0 6.46875 0 L 7.316406 0 C 7.523438 0 7.628906 -0.109375 7.628906 -0.316406 L 7.628906 -5.332031 C 7.628906 -7.507812 6.0625 -8.316406 4.144531 -8.316406 Z M 3.898438 -1.269531 C 3.238281 -1.269531 2.667969 -1.609375 2.667969 -2.355469 C 2.667969 -3.214844 3.414062 -3.554688 4.398438 -3.554688 C 4.800781 -3.554688 5.214844 -3.5 5.644531 -3.398438 L 5.644531 -3.054688 C 5.644531 -1.714844 4.628906 -1.269531 3.898438 -1.269531 Z M 3.898438 -1.269531 "/></g><g transform="translate(163.841958, 232.736163)"><path style="stroke:none;" d="M 4.613281 0.277344 C 6.683594 0.277344 8.628906 -0.691406 8.628906 -3.03125 C 8.628906 -5.109375 6.984375 -6.023438 5.5 -6.800781 C 4.152344 -7.484375 3.015625 -8.007812 3.015625 -9.039062 C 3.015625 -9.875 3.753906 -10.199219 4.667969 -10.199219 C 5.421875 -10.199219 6.308594 -9.992188 7.128906 -9.644531 C 7.316406 -9.570312 7.460938 -9.636719 7.539062 -9.824219 L 7.945312 -11.046875 C 8.023438 -11.230469 7.96875 -11.375 7.777344 -11.453125 C 6.714844 -11.851562 5.5625 -12.089844 4.628906 -12.089844 C 2.644531 -12.089844 0.832031 -11.152344 0.832031 -8.882812 C 0.832031 -6.992188 2.183594 -6.09375 3.613281 -5.308594 C 5.070312 -4.523438 6.4375 -3.96875 6.4375 -2.921875 C 6.4375 -2.054688 5.691406 -1.609375 4.5625 -1.609375 C 3.753906 -1.609375 2.738281 -1.800781 1.601562 -2.332031 C 1.40625 -2.414062 1.261719 -2.367188 1.183594 -2.183594 L 0.707031 -0.90625 C 0.628906 -0.714844 0.683594 -0.578125 0.882812 -0.484375 C 2.339844 0.0859375 3.484375 0.277344 4.613281 0.277344 Z M 4.613281 0.277344 "/></g><g transform="translate(173.095385, 232.736163)"><path style="stroke:none;" d="M 5.078125 0.175781 C 6.445312 0.175781 7.707031 -0.429688 8.46875 -1.40625 C 8.585938 -1.5625 8.554688 -1.699219 8.382812 -1.832031 L 7.429688 -2.660156 C 7.261719 -2.777344 7.128906 -2.730469 6.992188 -2.578125 C 6.570312 -1.976562 5.859375 -1.601562 5.078125 -1.601562 C 3.691406 -1.601562 2.636719 -2.628906 2.636719 -4.070312 C 2.636719 -5.515625 3.691406 -6.546875 5.078125 -6.546875 C 5.882812 -6.546875 6.570312 -6.160156 7 -5.5625 C 7.136719 -5.398438 7.277344 -5.367188 7.4375 -5.484375 L 8.382812 -6.300781 C 8.546875 -6.414062 8.585938 -6.585938 8.460938 -6.746094 C 7.683594 -7.707031 6.460938 -8.316406 5.078125 -8.316406 C 2.585938 -8.316406 0.675781 -6.570312 0.675781 -4.070312 C 0.675781 -1.578125 2.585938 0.175781 5.078125 0.175781 Z M 5.078125 0.175781 "/></g><g transform="translate(182.233432, 232.736163)"><path style="stroke:none;" d="M 2.722656 0 C 2.929688 0 3.039062 -0.109375 3.039062 -0.316406 L 3.039062 -4.390625 C 3.039062 -5.785156 3.613281 -6.507812 4.636719 -6.507812 C 4.800781 -6.507812 5.015625 -6.484375 5.253906 -6.429688 C 5.453125 -6.382812 5.59375 -6.453125 5.636719 -6.644531 L 5.945312 -7.824219 C 5.992188 -8.007812 5.921875 -8.152344 5.738281 -8.207031 C 5.484375 -8.277344 5.230469 -8.316406 5.007812 -8.316406 C 4.183594 -8.316406 3.347656 -7.945312 2.777344 -7.007812 L 2.5625 -7.867188 C 2.515625 -8.0625 2.390625 -8.144531 2.214844 -8.144531 L 1.363281 -8.144531 C 1.160156 -8.144531 1.046875 -8.03125 1.046875 -7.832031 L 1.054688 -0.316406 C 1.054688 -0.109375 1.167969 0 1.371094 0 Z M 2.722656 0 "/></g><g transform="translate(188.533147, 232.736163)"><path style="stroke:none;" d="M 2.039062 -8.929688 C 2.730469 -8.929688 3.246094 -9.453125 3.246094 -10.144531 C 3.246094 -10.832031 2.730469 -11.367188 2.039062 -11.367188 C 1.347656 -11.367188 0.824219 -10.832031 0.824219 -10.144531 C 0.824219 -9.453125 1.347656 -8.929688 2.039062 -8.929688 Z M 2.722656 0 C 2.929688 0 3.039062 -0.109375 3.039062 -0.316406 L 3.039062 -7.832031 C 3.039062 -8.03125 2.929688 -8.144531 2.722656 -8.144531 L 1.371094 -8.144531 C 1.167969 -8.144531 1.054688 -8.03125 1.054688 -7.832031 L 1.054688 -0.316406 C 1.054688 -0.109375 1.167969 0 1.371094 0 Z M 2.722656 0 "/></g><g transform="translate(192.640653, 232.736163)"><path style="stroke:none;" d="M 5.785156 -8.316406 C 4.609375 -8.316406 3.523438 -7.839844 2.800781 -7.007812 L 2.570312 -7.867188 C 2.523438 -8.0625 2.398438 -8.144531 2.222656 -8.144531 L 1.371094 -8.144531 C 1.167969 -8.144531 1.054688 -8.03125 1.054688 -7.832031 L 1.070312 3.269531 C 1.070312 3.476562 1.183594 3.585938 1.382812 3.585938 L 2.738281 3.585938 C 2.945312 3.585938 3.054688 3.476562 3.054688 3.269531 L 3.046875 -0.863281 C 3.777344 -0.199219 4.761719 0.175781 5.785156 0.175781 C 8.128906 0.175781 9.90625 -1.730469 9.90625 -4.070312 C 9.90625 -6.414062 8.128906 -8.316406 5.785156 -8.316406 Z M 5.453125 -1.601562 C 4.085938 -1.601562 2.976562 -2.707031 2.976562 -4.070312 C 2.976562 -5.4375 4.085938 -6.546875 5.453125 -6.546875 C 6.816406 -6.546875 7.921875 -5.4375 7.921875 -4.070312 C 7.921875 -2.707031 6.816406 -1.601562 5.453125 -1.601562 Z M 5.453125 -1.601562 "/></g><g transform="translate(203.240172, 232.736163)"><path style="stroke:none;" d="M 4.078125 0.175781 C 4.46875 0.175781 4.875 0.136719 5.324219 0 C 5.523438 -0.0625 5.585938 -0.222656 5.523438 -0.40625 L 5.253906 -1.375 C 5.191406 -1.570312 5.054688 -1.636719 4.855469 -1.578125 C 4.652344 -1.515625 4.46875 -1.492188 4.316406 -1.492188 C 3.824219 -1.492188 3.507812 -1.769531 3.507812 -2.421875 L 3.507812 -6.53125 L 5.023438 -6.53125 C 5.230469 -6.53125 5.339844 -6.636719 5.339844 -6.847656 L 5.339844 -7.832031 C 5.339844 -8.03125 5.230469 -8.144531 5.023438 -8.144531 L 3.507812 -8.144531 L 3.507812 -10.585938 C 3.507812 -10.792969 3.390625 -10.898438 3.191406 -10.898438 L 1.839844 -10.898438 C 1.628906 -10.898438 1.523438 -10.792969 1.523438 -10.585938 L 1.523438 -8.144531 L 0.847656 -8.144531 C 0.636719 -8.144531 0.53125 -8.03125 0.53125 -7.832031 L 0.53125 -6.847656 C 0.53125 -6.636719 0.636719 -6.53125 0.847656 -6.53125 L 1.523438 -6.53125 L 1.523438 -2.191406 C 1.523438 -0.652344 2.578125 0.175781 4.078125 0.175781 Z M 4.078125 0.175781 "/></g><g transform="translate(209.339896, 232.736163)"><path style="stroke:none;" d=""/></g><g transform="translate(214.062759, 232.736163)"><path style="stroke:none;" d="M 6.914062 0.277344 C 8.851562 0.277344 10.492188 -0.453125 11.589844 -1.660156 C 11.722656 -1.800781 11.691406 -1.945312 11.523438 -2.078125 L 10.277344 -2.953125 C 10.121094 -3.078125 9.976562 -3.054688 9.847656 -2.914062 C 9.121094 -2.183594 8.101562 -1.730469 6.921875 -1.730469 C 4.609375 -1.730469 2.847656 -3.398438 2.847656 -5.914062 C 2.847656 -8.421875 4.609375 -10.085938 6.90625 -10.085938 C 8.101562 -10.085938 9.113281 -9.628906 9.847656 -8.898438 C 9.976562 -8.761719 10.128906 -8.738281 10.277344 -8.859375 L 11.523438 -9.746094 C 11.683594 -9.875 11.707031 -10.03125 11.5625 -10.175781 C 10.453125 -11.375 8.832031 -12.089844 6.90625 -12.089844 C 3.355469 -12.089844 0.675781 -9.613281 0.675781 -5.90625 C 0.675781 -2.199219 3.347656 0.277344 6.914062 0.277344 Z M 6.914062 0.277344 "/></g><g transform="translate(226.223746, 232.736163)"><path style="stroke:none;" d="M 4.507812 0.175781 C 6.59375 0.175781 8.09375 -1.078125 8.09375 -3.300781 L 8.09375 -7.832031 C 8.09375 -8.03125 7.976562 -8.144531 7.777344 -8.144531 L 6.421875 -8.144531 C 6.214844 -8.144531 6.105469 -8.03125 6.105469 -7.832031 L 6.105469 -3.363281 C 6.105469 -2.308594 5.515625 -1.636719 4.507812 -1.636719 C 3.53125 -1.636719 2.914062 -2.261719 2.914062 -3.363281 L 2.914062 -7.832031 C 2.914062 -8.03125 2.808594 -8.144531 2.601562 -8.144531 L 1.246094 -8.144531 C 1.039062 -8.144531 0.929688 -8.03125 0.929688 -7.832031 L 0.929688 -3.300781 C 0.929688 -1.078125 2.414062 0.175781 4.507812 0.175781 Z M 4.507812 0.175781 "/></g><g transform="translate(235.254106, 232.736163)"><path style="stroke:none;" d="M 2.722656 0 C 2.929688 0 3.039062 -0.109375 3.039062 -0.316406 L 3.039062 -4.390625 C 3.039062 -5.785156 3.613281 -6.507812 4.636719 -6.507812 C 4.800781 -6.507812 5.015625 -6.484375 5.253906 -6.429688 C 5.453125 -6.382812 5.59375 -6.453125 5.636719 -6.644531 L 5.945312 -7.824219 C 5.992188 -8.007812 5.921875 -8.152344 5.738281 -8.207031 C 5.484375 -8.277344 5.230469 -8.316406 5.007812 -8.316406 C 4.183594 -8.316406 3.347656 -7.945312 2.777344 -7.007812 L 2.5625 -7.867188 C 2.515625 -8.0625 2.390625 -8.144531 2.214844 -8.144531 L 1.363281 -8.144531 C 1.160156 -8.144531 1.046875 -8.03125 1.046875 -7.832031 L 1.054688 -0.316406 C 1.054688 -0.109375 1.167969 0 1.371094 0 Z M 2.722656 0 "/></g><g transform="translate(241.55382, 232.736163)"><path style="stroke:none;" d="M 2.722656 0 C 2.929688 0 3.039062 -0.109375 3.039062 -0.316406 L 3.039062 -4.390625 C 3.039062 -5.785156 3.613281 -6.507812 4.636719 -6.507812 C 4.800781 -6.507812 5.015625 -6.484375 5.253906 -6.429688 C 5.453125 -6.382812 5.59375 -6.453125 5.636719 -6.644531 L 5.945312 -7.824219 C 5.992188 -8.007812 5.921875 -8.152344 5.738281 -8.207031 C 5.484375 -8.277344 5.230469 -8.316406 5.007812 -8.316406 C 4.183594 -8.316406 3.347656 -7.945312 2.777344 -7.007812 L 2.5625 -7.867188 C 2.515625 -8.0625 2.390625 -8.144531 2.214844 -8.144531 L 1.363281 -8.144531 C 1.160156 -8.144531 1.046875 -8.03125 1.046875 -7.832031 L 1.054688 -0.316406 C 1.054688 -0.109375 1.167969 0 1.371094 0 Z M 2.722656 0 "/></g><g transform="translate(247.853534, 232.736163)"><path style="stroke:none;" d="M 4.777344 -8.316406 C 2.453125 -8.316406 0.699219 -6.644531 0.699219 -4.070312 C 0.699219 -1.460938 2.578125 0.175781 4.859375 0.175781 C 6.101562 0.175781 7.308594 -0.347656 8.214844 -1.300781 C 8.375 -1.460938 8.375 -1.617188 8.222656 -1.730469 L 7.46875 -2.5625 C 7.324219 -2.675781 7.207031 -2.667969 7.0625 -2.53125 C 6.453125 -1.90625 5.667969 -1.578125 4.914062 -1.578125 C 3.730469 -1.578125 2.691406 -2.367188 2.636719 -3.792969 L 8.429688 -3.792969 C 8.652344 -3.792969 8.769531 -3.867188 8.769531 -4.144531 C 8.769531 -6.644531 7.101562 -8.316406 4.777344 -8.316406 Z M 4.816406 -6.675781 C 5.652344 -6.675781 6.46875 -6.222656 6.707031 -5.183594 L 2.777344 -5.183594 C 3.070312 -6.230469 4 -6.675781 4.816406 -6.675781 Z M 4.816406 -6.675781 "/></g><g transform="translate(257.291568, 232.736163)"><path style="stroke:none;" d="M 5.453125 -8.316406 C 4.546875 -8.316406 3.570312 -7.960938 2.753906 -7.160156 L 2.570312 -7.867188 C 2.523438 -8.0625 2.398438 -8.144531 2.222656 -8.144531 L 1.371094 -8.144531 C 1.167969 -8.144531 1.054688 -8.03125 1.054688 -7.832031 L 1.054688 -0.316406 C 1.054688 -0.109375 1.167969 0 1.371094 0 L 2.722656 0 C 2.929688 0 3.039062 -0.109375 3.039062 -0.316406 L 3.039062 -4.699219 C 3.039062 -5.859375 3.847656 -6.570312 4.847656 -6.570312 C 5.867188 -6.570312 6.484375 -5.816406 6.484375 -4.746094 L 6.484375 -0.316406 C 6.484375 -0.109375 6.59375 0 6.800781 0 L 8.152344 0 C 8.351562 0 8.46875 -0.109375 8.46875 -0.316406 L 8.46875 -5.03125 C 8.46875 -6.628906 7.675781 -8.316406 5.453125 -8.316406 Z M 5.453125 -8.316406 "/></g><g transform="translate(266.729602, 232.736163)"><path style="stroke:none;" d="M 5.078125 0.175781 C 6.445312 0.175781 7.707031 -0.429688 8.46875 -1.40625 C 8.585938 -1.5625 8.554688 -1.699219 8.382812 -1.832031 L 7.429688 -2.660156 C 7.261719 -2.777344 7.128906 -2.730469 6.992188 -2.578125 C 6.570312 -1.976562 5.859375 -1.601562 5.078125 -1.601562 C 3.691406 -1.601562 2.636719 -2.628906 2.636719 -4.070312 C 2.636719 -5.515625 3.691406 -6.546875 5.078125 -6.546875 C 5.882812 -6.546875 6.570312 -6.160156 7 -5.5625 C 7.136719 -5.398438 7.277344 -5.367188 7.4375 -5.484375 L 8.382812 -6.300781 C 8.546875 -6.414062 8.585938 -6.585938 8.460938 -6.746094 C 7.683594 -7.707031 6.460938 -8.316406 5.078125 -8.316406 C 2.585938 -8.316406 0.675781 -6.570312 0.675781 -4.070312 C 0.675781 -1.578125 2.585938 0.175781 5.078125 0.175781 Z M 5.078125 0.175781 "/></g><g transform="translate(275.867649, 232.736163)"><path style="stroke:none;" d="M 6.921875 -8.144531 C 6.753906 -8.144531 6.628906 -8.09375 6.554688 -7.90625 L 4.585938 -3.375 L 2.445312 -7.90625 C 2.375 -8.070312 2.246094 -8.144531 2.078125 -8.144531 L 0.601562 -8.144531 C 0.355469 -8.144531 0.269531 -7.984375 0.371094 -7.769531 L 3.570312 -1.191406 L 1.445312 3.214844 C 1.347656 3.429688 1.4375 3.585938 1.675781 3.585938 L 3.09375 3.585938 C 3.261719 3.585938 3.390625 3.507812 3.46875 3.347656 L 8.644531 -7.777344 C 8.753906 -7.992188 8.644531 -8.144531 8.421875 -8.144531 Z M 6.921875 -8.144531 "/></g><g transform="translate(284.898009, 232.736163)"><path style="stroke:none;" d=""/></g><g transform="translate(289.620872, 232.736163)"><path style="stroke:none;" d="M 6.914062 0.277344 C 8.851562 0.277344 10.492188 -0.453125 11.589844 -1.660156 C 11.722656 -1.800781 11.691406 -1.945312 11.523438 -2.078125 L 10.277344 -2.953125 C 10.121094 -3.078125 9.976562 -3.054688 9.847656 -2.914062 C 9.121094 -2.183594 8.101562 -1.730469 6.921875 -1.730469 C 4.609375 -1.730469 2.847656 -3.398438 2.847656 -5.914062 C 2.847656 -8.421875 4.609375 -10.085938 6.90625 -10.085938 C 8.101562 -10.085938 9.113281 -9.628906 9.847656 -8.898438 C 9.976562 -8.761719 10.128906 -8.738281 10.277344 -8.859375 L 11.523438 -9.746094 C 11.683594 -9.875 11.707031 -10.03125 11.5625 -10.175781 C 10.453125 -11.375 8.832031 -12.089844 6.90625 -12.089844 C 3.355469 -12.089844 0.675781 -9.613281 0.675781 -5.90625 C 0.675781 -2.199219 3.347656 0.277344 6.914062 0.277344 Z M 6.914062 0.277344 "/></g><g transform="translate(301.781859, 232.736163)"><path style="stroke:none;" d="M 5.039062 0.175781 C 7.539062 0.175781 9.421875 -1.578125 9.421875 -4.070312 C 9.421875 -6.570312 7.539062 -8.316406 5.039062 -8.316406 C 2.5625 -8.316406 0.675781 -6.570312 0.675781 -4.070312 C 0.675781 -1.578125 2.5625 0.175781 5.039062 0.175781 Z M 5.039062 -1.601562 C 3.660156 -1.601562 2.652344 -2.628906 2.652344 -4.070312 C 2.652344 -5.515625 3.660156 -6.546875 5.039062 -6.546875 C 6.445312 -6.546875 7.445312 -5.515625 7.445312 -4.070312 C 7.445312 -2.628906 6.445312 -1.601562 5.039062 -1.601562 Z M 5.039062 -1.601562 "/></g><g transform="translate(311.889093, 232.736163)"><path style="stroke:none;" d="M 5.453125 -8.316406 C 4.546875 -8.316406 3.570312 -7.960938 2.753906 -7.160156 L 2.570312 -7.867188 C 2.523438 -8.0625 2.398438 -8.144531 2.222656 -8.144531 L 1.371094 -8.144531 C 1.167969 -8.144531 1.054688 -8.03125 1.054688 -7.832031 L 1.054688 -0.316406 C 1.054688 -0.109375 1.167969 0 1.371094 0 L 2.722656 0 C 2.929688 0 3.039062 -0.109375 3.039062 -0.316406 L 3.039062 -4.699219 C 3.039062 -5.859375 3.847656 -6.570312 4.847656 -6.570312 C 5.867188 -6.570312 6.484375 -5.816406 6.484375 -4.746094 L 6.484375 -0.316406 C 6.484375 -0.109375 6.59375 0 6.800781 0 L 8.152344 0 C 8.351562 0 8.46875 -0.109375 8.46875 -0.316406 L 8.46875 -5.03125 C 8.46875 -6.628906 7.675781 -8.316406 5.453125 -8.316406 Z M 5.453125 -8.316406 "/></g><g transform="translate(321.327127, 232.736163)"><path style="stroke:none;" d="M 3.992188 0.0078125 C 4.222656 0.484375 4.621094 0.476562 4.847656 0 L 8.4375 -7.777344 C 8.539062 -7.992188 8.4375 -8.144531 8.199219 -8.144531 L 6.785156 -8.144531 C 6.605469 -8.144531 6.492188 -8.085938 6.421875 -7.90625 L 4.421875 -2.921875 L 2.375 -7.90625 C 2.308594 -8.078125 2.183594 -8.144531 2.007812 -8.144531 L 0.609375 -8.144531 C 0.371094 -8.144531 0.277344 -7.992188 0.375 -7.777344 Z M 3.992188 0.0078125 "/></g><g transform="translate(330.149804, 232.736163)"><path style="stroke:none;" d="M 4.777344 -8.316406 C 2.453125 -8.316406 0.699219 -6.644531 0.699219 -4.070312 C 0.699219 -1.460938 2.578125 0.175781 4.859375 0.175781 C 6.101562 0.175781 7.308594 -0.347656 8.214844 -1.300781 C 8.375 -1.460938 8.375 -1.617188 8.222656 -1.730469 L 7.46875 -2.5625 C 7.324219 -2.675781 7.207031 -2.667969 7.0625 -2.53125 C 6.453125 -1.90625 5.667969 -1.578125 4.914062 -1.578125 C 3.730469 -1.578125 2.691406 -2.367188 2.636719 -3.792969 L 8.429688 -3.792969 C 8.652344 -3.792969 8.769531 -3.867188 8.769531 -4.144531 C 8.769531 -6.644531 7.101562 -8.316406 4.777344 -8.316406 Z M 4.816406 -6.675781 C 5.652344 -6.675781 6.46875 -6.222656 6.707031 -5.183594 L 2.777344 -5.183594 C 3.070312 -6.230469 4 -6.675781 4.816406 -6.675781 Z M 4.816406 -6.675781 "/></g><g transform="translate(339.587837, 232.736163)"><path style="stroke:none;" d="M 2.722656 0 C 2.929688 0 3.039062 -0.109375 3.039062 -0.316406 L 3.039062 -4.390625 C 3.039062 -5.785156 3.613281 -6.507812 4.636719 -6.507812 C 4.800781 -6.507812 5.015625 -6.484375 5.253906 -6.429688 C 5.453125 -6.382812 5.59375 -6.453125 5.636719 -6.644531 L 5.945312 -7.824219 C 5.992188 -8.007812 5.921875 -8.152344 5.738281 -8.207031 C 5.484375 -8.277344 5.230469 -8.316406 5.007812 -8.316406 C 4.183594 -8.316406 3.347656 -7.945312 2.777344 -7.007812 L 2.5625 -7.867188 C 2.515625 -8.0625 2.390625 -8.144531 2.214844 -8.144531 L 1.363281 -8.144531 C 1.160156 -8.144531 1.046875 -8.03125 1.046875 -7.832031 L 1.054688 -0.316406 C 1.054688 -0.109375 1.167969 0 1.371094 0 Z M 2.722656 0 "/></g><g transform="translate(345.887552, 232.736163)"><path style="stroke:none;" d="M 4.078125 0.175781 C 4.46875 0.175781 4.875 0.136719 5.324219 0 C 5.523438 -0.0625 5.585938 -0.222656 5.523438 -0.40625 L 5.253906 -1.375 C 5.191406 -1.570312 5.054688 -1.636719 4.855469 -1.578125 C 4.652344 -1.515625 4.46875 -1.492188 4.316406 -1.492188 C 3.824219 -1.492188 3.507812 -1.769531 3.507812 -2.421875 L 3.507812 -6.53125 L 5.023438 -6.53125 C 5.230469 -6.53125 5.339844 -6.636719 5.339844 -6.847656 L 5.339844 -7.832031 C 5.339844 -8.03125 5.230469 -8.144531 5.023438 -8.144531 L 3.507812 -8.144531 L 3.507812 -10.585938 C 3.507812 -10.792969 3.390625 -10.898438 3.191406 -10.898438 L 1.839844 -10.898438 C 1.628906 -10.898438 1.523438 -10.792969 1.523438 -10.585938 L 1.523438 -8.144531 L 0.847656 -8.144531 C 0.636719 -8.144531 0.53125 -8.03125 0.53125 -7.832031 L 0.53125 -6.847656 C 0.53125 -6.636719 0.636719 -6.53125 0.847656 -6.53125 L 1.523438 -6.53125 L 1.523438 -2.191406 C 1.523438 -0.652344 2.578125 0.175781 4.078125 0.175781 Z M 4.078125 0.175781 "/></g><g transform="translate(351.987275, 232.736163)"><path style="stroke:none;" d="M 4.777344 -8.316406 C 2.453125 -8.316406 0.699219 -6.644531 0.699219 -4.070312 C 0.699219 -1.460938 2.578125 0.175781 4.859375 0.175781 C 6.101562 0.175781 7.308594 -0.347656 8.214844 -1.300781 C 8.375 -1.460938 8.375 -1.617188 8.222656 -1.730469 L 7.46875 -2.5625 C 7.324219 -2.675781 7.207031 -2.667969 7.0625 -2.53125 C 6.453125 -1.90625 5.667969 -1.578125 4.914062 -1.578125 C 3.730469 -1.578125 2.691406 -2.367188 2.636719 -3.792969 L 8.429688 -3.792969 C 8.652344 -3.792969 8.769531 -3.867188 8.769531 -4.144531 C 8.769531 -6.644531 7.101562 -8.316406 4.777344 -8.316406 Z M 4.816406 -6.675781 C 5.652344 -6.675781 6.46875 -6.222656 6.707031 -5.183594 L 2.777344 -5.183594 C 3.070312 -6.230469 4 -6.675781 4.816406 -6.675781 Z M 4.816406 -6.675781 "/></g><g transform="translate(361.425309, 232.736163)"><path style="stroke:none;" d="M 2.722656 0 C 2.929688 0 3.039062 -0.109375 3.039062 -0.316406 L 3.039062 -4.390625 C 3.039062 -5.785156 3.613281 -6.507812 4.636719 -6.507812 C 4.800781 -6.507812 5.015625 -6.484375 5.253906 -6.429688 C 5.453125 -6.382812 5.59375 -6.453125 5.636719 -6.644531 L 5.945312 -7.824219 C 5.992188 -8.007812 5.921875 -8.152344 5.738281 -8.207031 C 5.484375 -8.277344 5.230469 -8.316406 5.007812 -8.316406 C 4.183594 -8.316406 3.347656 -7.945312 2.777344 -7.007812 L 2.5625 -7.867188 C 2.515625 -8.0625 2.390625 -8.144531 2.214844 -8.144531 L 1.363281 -8.144531 C 1.160156 -8.144531 1.046875 -8.03125 1.046875 -7.832031 L 1.054688 -0.316406 C 1.054688 -0.109375 1.167969 0 1.371094 0 Z M 2.722656 0 "/></g></g></g></svg>